<?xml version="1.0" encoding="utf-8"?>
<!-- Generator: Adobe Illustrator 28.1.0, SVG Export Plug-In . SVG Version: 6.00 Build 0)  -->
<svg version="1.1" id="Layer_1" xmlns="http://www.w3.org/2000/svg" xmlns:xlink="http://www.w3.org/1999/xlink" x="0px" y="0px"
	 viewBox="0 0 64 64" style="enable-background:new 0 0 64 64;" xml:space="preserve">
<style type="text/css">
	.st0{fill-rule:evenodd;clip-rule:evenodd;fill:url(#Fill-11_00000172410695717142381560000003400390671746414271_);}
	.st1{fill-rule:evenodd;clip-rule:evenodd;fill:url(#Fill-11-Copy_00000136413326176749603700000013534155579023389597_);}
	.st2{fill-rule:evenodd;clip-rule:evenodd;fill:url(#Combined-Shape_00000124137656548040495750000006502102427791740589_);}
	.st3{fill-rule:evenodd;clip-rule:evenodd;fill:url(#Fill-7_00000157310060408163654910000016202818505308492683_);}
</style>
<g id="Intelligence_4-star_color_Final">
	
		<linearGradient id="Fill-11_00000155142455351468494710000010864433243541217708_" gradientUnits="userSpaceOnUse" x1="-813.4095" y1="400.9147" x2="-813.1165" y2="400.5817" gradientTransform="matrix(42 0 0 -49 34179.7148 19649)">
		<stop  offset="0" style="stop-color:#2C92B9"/>
		<stop  offset="1" style="stop-color:#19FF9F"/>
	</linearGradient>
	
		<path id="Fill-11" style="fill-rule:evenodd;clip-rule:evenodd;fill:url(#Fill-11_00000155142455351468494710000010864433243541217708_);" d="
		M18.6,7.7l1.8-4.6c0.2-0.4,0.8-0.4,1.1,0l1.8,4.6l3.6,1.8c0.4,0.2,0.4,0.8,0,1.1l-3.6,1.8L21.5,17c-0.2,0.4-0.8,0.4-1.1,0l-1.8-4.6
		L15,10.6c-0.4-0.2-0.4-0.8,0-1.1L18.6,7.7z"/>
	
		<linearGradient id="Fill-11-Copy_00000010312932500305165300000013078904662785641116_" gradientUnits="userSpaceOnUse" x1="-815.1864" y1="402.9838" x2="-815.0569" y2="402.9058" gradientTransform="matrix(42 0 0 -49 34285.7148 19797)">
		<stop  offset="0" style="stop-color:#305EBF"/>
		<stop  offset="1" style="stop-color:#2780FB"/>
	</linearGradient>
	
		<path id="Fill-11-Copy" style="fill-rule:evenodd;clip-rule:evenodd;fill:url(#Fill-11-Copy_00000010312932500305165300000013078904662785641116_);" d="
		M50.1,51.6l1.8-4.6c0.2-0.4,0.8-0.4,1.1,0l1.8,4.6l3.6,1.8c0.4,0.2,0.4,0.8,0,1.1l-3.6,1.8l-1.8,4.6c-0.2,0.4-0.8,0.4-1.1,0
		l-1.8-4.6l-3.6-1.8c-0.4-0.2-0.4-0.8,0-1.1L50.1,51.6z"/>
	
		<linearGradient id="Combined-Shape_00000102529430850938165040000007279235117863585158_" gradientUnits="userSpaceOnUse" x1="-822.0956" y1="408.542" x2="-821.979" y2="408.3256" gradientTransform="matrix(81.725 0 0 -110.8356 67199.4922 45310.3359)">
		<stop  offset="0" style="stop-color:#3581FF"/>
		<stop  offset="0.5277" style="stop-color:#31AFFF"/>
		<stop  offset="1" style="stop-color:#19FF9F"/>
	</linearGradient>
	
		<path id="Combined-Shape" style="fill-rule:evenodd;clip-rule:evenodd;fill:url(#Combined-Shape_00000102529430850938165040000007279235117863585158_);" d="
		M18,21.7c0.5-1,1.8-1,2.3,0L22,26l-1.3,0.7c-4.6,2.4-3.7,6.9-0.1,8.5l0.1,0.1l8.9,4.5l0.1,0.2l-5.3,2.7l-4,10.4c-0.5,1-1.8,1-2.3,0
		l-4-10.4l-7.9-4.1c-1-0.5-1-1.9,0-2.4l7.9-4.1L18,21.7z"/>
	
		<linearGradient id="Fill-7_00000132794650595881560980000014226594903769704105_" gradientUnits="userSpaceOnUse" x1="-837.3016" y1="409.6933" x2="-837.1725" y2="409.6153" gradientTransform="matrix(-126.697 0 0 -148 -106031.0547 60656)">
		<stop  offset="0" style="stop-color:#305EBF"/>
		<stop  offset="1" style="stop-color:#2780FB"/>
	</linearGradient>
	
		<path id="Fill-7" style="fill-rule:evenodd;clip-rule:evenodd;fill:url(#Fill-7_00000132794650595881560980000014226594903769704105_);" d="
		M46,23.9L40.6,10c-0.7-1.3-2.5-1.3-3.2,0l-5.5,13.9l-10.8,5.5c-1.3,0.7-1.3,2.5,0,3.2L31.9,38l5.5,13.9c0.7,1.3,2.5,1.3,3.2,0
		L46,38l10.8-5.5c1.3-0.7,1.3-2.5,0-3.2L46,23.9z"/>
</g>
</svg>
